<svg width="16" height="16" viewBox="0 0 16 16" fill="none" xmlns="http://www.w3.org/2000/svg">
<path d="M7.57685 1.47049C7.84003 1.25586 8.22796 1.27099 8.47325 1.51629L12.4932 5.53629L12.539 5.58733C12.7537 5.85048 12.7385 6.23841 12.4932 6.48371C12.248 6.72904 11.86 6.74418 11.5969 6.52951L11.5458 6.48371L7.99949 2.93742L4.45323 6.48371C4.19158 6.74539 3.76746 6.74539 3.50581 6.48371C3.24416 6.22206 3.24416 5.79794 3.50581 5.53629L7.5258 1.51629L7.57685 1.47049Z" fill="#171A1F"/>
<path d="M7.33008 11.36L7.33008 1.98C7.33008 1.60997 7.63004 1.31 8.00008 1.31C8.37012 1.31 8.67008 1.60997 8.67008 1.98L8.67008 11.36C8.67008 11.73 8.37012 12.03 8.00008 12.03C7.63004 12.03 7.33008 11.73 7.33008 11.36Z" fill="#171A1F"/>
<path d="M12.6896 13.33C13.0597 13.33 13.3596 13.63 13.3596 14C13.3596 14.37 13.0597 14.67 12.6896 14.67L3.30965 14.67C2.93962 14.67 2.63965 14.37 2.63965 14C2.63965 13.63 2.93962 13.33 3.30965 13.33L12.6896 13.33Z" fill="#171A1F"/>
</svg>
