<svg width="16" height="16" viewBox="0 0 16 16" fill="none" xmlns="http://www.w3.org/2000/svg">
<g clip-path="url(#clip0_14_1279)">
<path d="M14.0299 8.00001C14.0299 4.66973 11.3302 1.97 7.99988 1.97C4.66961 1.97 1.96988 4.66973 1.96988 8.00001C1.96988 11.3303 4.66961 14.03 7.99988 14.03C11.3302 14.03 14.0299 11.3303 14.0299 8.00001ZM15.3699 8.00001C15.3699 12.0703 12.0702 15.37 7.99988 15.37C3.92955 15.37 0.629883 12.0703 0.629883 8.00001C0.629883 3.92967 3.92955 0.630005 7.99988 0.630005C12.0702 0.630005 15.3699 3.92967 15.3699 8.00001Z" fill="#171A1F"/>
<path d="M9.53608 5.5163C9.79772 5.25466 10.2218 5.25466 10.4835 5.5163C10.7452 5.77795 10.7452 6.20208 10.4835 6.46373L6.46348 10.4837C6.20183 10.7454 5.77771 10.7454 5.51606 10.4837C5.25441 10.2221 5.25441 9.79796 5.51606 9.53632L9.53608 5.5163Z" fill="#171A1F"/>
<path d="M5.51596 5.51629C5.76126 5.27099 6.14919 5.25586 6.41234 5.47049L6.46338 5.51629L10.4834 9.53631L10.5292 9.5873C10.7438 9.85048 10.7286 10.2384 10.4834 10.4837C10.2381 10.729 9.85014 10.7441 9.58696 10.5295L9.53598 10.4837L5.51596 6.46371L5.47016 6.41268C5.25552 6.14952 5.27066 5.76159 5.51596 5.51629Z" fill="#171A1F"/>
</g>
<defs>
<clipPath id="clip0_14_1279">
<rect width="16" height="16" fill="white"/>
</clipPath>
</defs>
</svg>
