<svg width="20" height="20" viewBox="0 0 20 20" fill="none" xmlns="http://www.w3.org/2000/svg">
<g clip-path="url(#clip0_14_1247)">
<path d="M17.4701 10C17.4701 5.87443 14.1257 2.53 10.0001 2.53C5.87455 2.53 2.53012 5.87443 2.53012 10C2.53012 14.1256 5.87455 17.47 10.0001 17.47C14.1257 17.47 17.4701 14.1256 17.4701 10ZM19.1301 10C19.1301 15.0423 15.0424 19.13 10.0001 19.13C4.95776 19.13 0.870117 15.0423 0.870117 10C0.870117 4.95764 4.95776 0.869995 10.0001 0.869995C15.0424 0.869995 19.1301 4.95764 19.1301 10Z" fill="white"/>
<path d="M13.3201 9.17C13.7785 9.17 14.1501 9.54159 14.1501 10C14.1501 10.4584 13.7785 10.83 13.3201 10.83L6.6801 10.83C6.22171 10.83 5.8501 10.4584 5.8501 10C5.8501 9.54159 6.22171 9.17 6.6801 9.17L13.3201 9.17Z" fill="white"/>
<path d="M9.16992 13.32L9.16992 6.67999C9.16992 6.2216 9.54151 5.84999 9.99992 5.84999C10.4583 5.84999 10.8299 6.2216 10.8299 6.67999L10.8299 13.32C10.8299 13.7784 10.4583 14.15 9.99992 14.15C9.54151 14.15 9.16992 13.7784 9.16992 13.32Z" fill="white"/>
</g>
<defs>
<clipPath id="clip0_14_1247">
<rect width="20" height="20" fill="white"/>
</clipPath>
</defs>
</svg>
