<svg width="16" height="16" viewBox="0 0 16 16" fill="none" xmlns="http://www.w3.org/2000/svg">
<path d="M1.2998 12.69L1.2998 3.30999C1.2998 2.7769 1.51173 2.26581 1.88867 1.88886C2.26562 1.51191 2.77672 1.29999 3.3098 1.29999L7.9998 1.29999C8.36985 1.29999 8.6698 1.59996 8.6698 1.96999C8.6698 2.34002 8.36985 2.63999 7.9998 2.63999L3.3098 2.63999C3.13211 2.63999 2.96175 2.71063 2.83609 2.83628C2.71044 2.96193 2.6398 3.13229 2.6398 3.30999L2.6398 12.69C2.6398 12.8677 2.71044 13.0381 2.83609 13.1637C2.96175 13.2894 3.13211 13.36 3.3098 13.36L12.6898 13.36C12.8675 13.36 13.0379 13.2894 13.1635 13.1637C13.2892 13.0381 13.3598 12.8677 13.3598 12.69L13.3598 7.99999C13.3598 7.62995 13.6598 7.32999 14.0298 7.32999C14.3998 7.32999 14.6998 7.62995 14.6998 7.99999L14.6998 12.69C14.6998 13.2231 14.4879 13.7342 14.1109 14.1111C13.734 14.4881 13.2229 14.7 12.6898 14.7L3.3098 14.7C2.77672 14.7 2.26562 14.4881 1.88867 14.1111C1.51173 13.7342 1.2998 13.223 1.2998 12.69Z" fill="#171A1F"/>
<path d="M14.0141 2.65965C13.9971 2.4876 13.9208 2.32563 13.7975 2.2023C13.6566 2.06148 13.4654 1.98246 13.2662 1.98246C13.0918 1.98247 12.9236 2.04298 12.7899 2.15258L12.7349 2.2023L6.6964 8.24209C6.61689 8.32149 6.55799 8.41964 6.52631 8.52738L6.13504 9.86409L7.47307 9.47348L7.55226 9.44474C7.60358 9.42243 7.65196 9.39396 7.69618 9.35965L7.75902 9.30404L13.7975 3.26488L13.8472 3.20992C13.9569 3.07621 14.0174 2.90799 14.0174 2.73359L14.0141 2.65965ZM15.3547 2.83762C15.3308 3.31998 15.1404 3.77905 14.8163 4.13706L14.7449 4.2123L8.7064 10.2521C8.46781 10.4905 8.17248 10.6646 7.84867 10.7592L7.84927 10.7598L5.92436 11.3226C5.75145 11.3729 5.56755 11.3757 5.39307 11.3311C5.21855 11.2864 5.05919 11.1955 4.93179 11.068C4.80452 10.9407 4.71349 10.7818 4.66876 10.6074C4.62405 10.4329 4.62683 10.2491 4.67727 10.0761L5.24062 8.15117V8.1505L5.27987 8.0301C5.36593 7.79326 5.49579 7.5745 5.66264 7.38563L5.74901 7.29404L11.7875 1.25488L11.8628 1.18356C12.2463 0.836213 12.7463 0.642476 13.2662 0.642456C13.8208 0.642456 14.3528 0.862752 14.7449 1.25488C15.1371 1.64703 15.3573 2.179 15.3574 2.73359L15.3547 2.83762Z" fill="#171A1F"/>
</svg>
