<svg width="16" height="16" viewBox="0 0 16 16" fill="none" xmlns="http://www.w3.org/2000/svg">
<g clip-path="url(#clip0_14_1337)">
<path d="M14.0298 3.32996C14.3998 3.32996 14.6998 3.62993 14.6998 3.99996C14.6998 4.36998 14.3998 4.66996 14.0298 4.66996L1.9698 4.66996C1.59978 4.66996 1.2998 4.36998 1.2998 3.99996C1.2998 3.62993 1.59978 3.32996 1.9698 3.32996L14.0298 3.32996Z" fill="#171A1F"/>
<path d="M2.63965 13.35L2.63965 3.96999C2.63965 3.59996 2.93962 3.29999 3.30965 3.29999C3.67968 3.29999 3.97965 3.59996 3.97965 3.96999L3.97965 13.35C3.97965 13.4671 4.04489 13.6403 4.20211 13.7975C4.35933 13.9547 4.53255 14.02 4.64965 14.02L11.3496 14.02C11.4668 14.02 11.64 13.9547 11.7972 13.7975C11.9544 13.6403 12.0196 13.4671 12.0196 13.35L12.0196 3.96999C12.0196 3.59996 12.3196 3.29999 12.6896 3.29999C13.0597 3.29999 13.3596 3.59996 13.3596 3.96999L13.3596 13.35C13.3596 13.9029 13.0899 14.3997 12.7446 14.7449C12.3993 15.0902 11.9025 15.36 11.3496 15.36L4.64965 15.36C4.09674 15.36 3.59997 15.0902 3.25469 14.7449C2.9094 14.3997 2.63965 13.9029 2.63965 13.35Z" fill="#171A1F"/>
<path d="M10.0099 4.00997L10.0099 2.66997C10.0099 2.55288 9.94464 2.37966 9.78746 2.22243C9.63021 2.06522 9.45702 1.99997 9.3399 1.99997L6.6599 1.99997C6.54281 1.99997 6.36958 2.06522 6.21236 2.22243C6.05515 2.37966 5.9899 2.55288 5.9899 2.66997L5.9899 4.00997C5.9899 4.38 5.68993 4.67997 5.3199 4.67997C4.94987 4.67997 4.6499 4.38 4.6499 4.00997L4.6499 2.66997C4.6499 2.11707 4.91966 1.62029 5.26494 1.27501C5.61022 0.929729 6.107 0.659973 6.6599 0.659973L9.3399 0.659973C9.89279 0.659973 10.3896 0.929729 10.7348 1.27501C11.0802 1.62029 11.3499 2.11707 11.3499 2.66997L11.3499 4.00997C11.3499 4.38 11.0499 4.67997 10.6799 4.67997C10.3099 4.67997 10.0099 4.38 10.0099 4.00997Z" fill="#171A1F"/>
<path d="M6 11.34L6 7.31996C6 6.94992 6.29997 6.64996 6.67 6.64996C7.04004 6.64996 7.34 6.94992 7.34 7.31996L7.34 11.34C7.34 11.71 7.04004 12.01 6.67 12.01C6.29997 12.01 6 11.71 6 11.34Z" fill="#171A1F"/>
<path d="M8.65967 11.34L8.65967 7.31996C8.65967 6.94992 8.95963 6.64996 9.32967 6.64996C9.69971 6.64996 9.99967 6.94992 9.99967 7.31996L9.99967 11.34C9.99967 11.71 9.69971 12.01 9.32967 12.01C8.95963 12.01 8.65967 11.71 8.65967 11.34Z" fill="#171A1F"/>
</g>
<defs>
<clipPath id="clip0_14_1337">
<rect width="16" height="16" fill="white"/>
</clipPath>
</defs>
</svg>
