<svg width="16" height="16" viewBox="0 0 16 16" fill="none" xmlns="http://www.w3.org/2000/svg">
<path d="M13.36 8.65502C13.36 8.28498 13.0601 7.98502 12.69 7.98502L3.31005 7.98502C2.94002 7.98502 2.64005 8.28498 2.64005 8.65502L2.64005 13.345C2.64005 13.7151 2.94002 14.015 3.31005 14.015L12.69 14.015C13.0601 14.015 13.36 13.7151 13.36 13.345L13.36 8.65502ZM14.7 13.345C14.7 14.4551 13.8002 15.355 12.69 15.355L3.31005 15.355C2.19996 15.355 1.30005 14.4551 1.30005 13.345L1.30005 8.65502C1.30005 7.5449 2.19996 6.64502 3.31005 6.64502L12.69 6.64502C13.8002 6.64502 14.7 7.5449 14.7 8.65502L14.7 13.345Z" fill="#565D6D"/>
<path d="M10.68 7.34502L10.68 4.66502C10.68 3.95424 10.3974 3.27277 9.89481 2.77018C9.39224 2.26758 8.71078 1.98502 7.99998 1.98502C7.28918 1.98502 6.60773 2.26758 6.10514 2.77018C5.60254 3.27277 5.31998 3.95424 5.31998 4.66502L5.31998 7.34502C5.31998 7.71506 5.02001 8.01502 4.64998 8.01502C4.27995 8.01502 3.97998 7.71506 3.97998 7.34502L3.97998 4.66502C3.97998 3.59885 4.40382 2.57665 5.15771 1.82275C5.91161 1.06885 6.93381 0.64502 7.99998 0.64502C9.06615 0.64502 10.0884 1.06885 10.8423 1.82275C11.5961 2.57665 12.02 3.59885 12.02 4.66502V7.34502C12.02 7.71506 11.72 8.01502 11.35 8.01502C10.9799 8.01502 10.68 7.71506 10.68 7.34502Z" fill="#565D6D"/>
</svg>
