<svg width="20" height="20" viewBox="0 0 20 20" fill="none" xmlns="http://www.w3.org/2000/svg">
<path d="M13.302 13.3021C13.6059 12.9982 14.0865 12.9795 14.4125 13.2454L14.4757 13.3021L18.0778 16.9042L18.1354 16.9674C18.401 17.2934 18.3816 17.774 18.0778 18.0778C17.774 18.3816 17.2933 18.401 16.9673 18.1354L16.9042 18.0778L13.302 14.4758L13.2453 14.4125C12.9794 14.0865 12.9982 13.6059 13.302 13.3021Z" fill="#565D6D"/>
<path d="M14.98 9.17C14.98 5.96123 12.3787 3.36 9.16995 3.36C5.96118 3.36 3.35995 5.96123 3.35995 9.17C3.35995 12.3788 5.96118 14.98 9.16995 14.98C12.3787 14.98 14.98 12.3788 14.98 9.17ZM16.64 9.17C16.64 13.2956 13.2955 16.64 9.16995 16.64C5.04439 16.64 1.69995 13.2956 1.69995 9.17C1.69995 5.04443 5.04439 1.7 9.16995 1.7C13.2955 1.7 16.64 5.04443 16.64 9.17Z" fill="#565D6D"/>
</svg>
