<svg width="16" height="16" viewBox="0 0 16 16" fill="none" xmlns="http://www.w3.org/2000/svg">
<path d="M12.0199 14.01L12.0199 12.67C12.0199 12.137 11.808 11.6258 11.431 11.2489C11.1013 10.9191 10.6688 10.7156 10.2088 10.6698L10.0099 10.66L5.98989 10.66C5.45681 10.66 4.94571 10.8719 4.56876 11.2489C4.19181 11.6258 3.97989 12.137 3.97989 12.67V14.01C3.97989 14.38 3.67992 14.68 3.30989 14.68C2.93986 14.68 2.63989 14.38 2.63989 14.01L2.63989 12.67C2.63989 11.7815 2.99309 10.9297 3.62134 10.3014C4.24959 9.67323 5.10142 9.32001 5.98989 9.32001L10.0099 9.32001L10.1761 9.32396C11.004 9.36503 11.7895 9.71249 12.3785 10.3014C13.0067 10.9297 13.3599 11.7815 13.3599 12.67L13.3599 14.01C13.3599 14.38 13.0599 14.68 12.6899 14.68C12.3199 14.68 12.0199 14.38 12.0199 14.01Z" fill="#565D6D"/>
<path d="M10.0099 4.67001C10.0099 3.55992 9.11002 2.66001 7.9999 2.66001C6.88978 2.66001 5.9899 3.55992 5.9899 4.67001C5.9899 5.7801 6.88978 6.68001 7.9999 6.68001C9.11002 6.68001 10.0099 5.7801 10.0099 4.67001ZM11.3499 4.67001C11.3499 6.52016 9.85004 8.02001 7.9999 8.02001C6.14975 8.02001 4.6499 6.52016 4.6499 4.67001C4.6499 2.81986 6.14975 1.32001 7.9999 1.32001C9.85004 1.32001 11.3499 2.81986 11.3499 4.67001Z" fill="#565D6D"/>
</svg>
