<svg width="20" height="20" viewBox="0 0 20 20" fill="none" xmlns="http://www.w3.org/2000/svg">
<g clip-path="url(#clip0_16_5272)">
<path d="M10.7647 17.0187C11.0107 16.6775 11.4802 16.5713 11.8524 16.7861C12.2246 17.001 12.3678 17.4609 12.1953 17.8447L12.1564 17.9201C11.9379 18.2984 11.6236 18.6126 11.2453 18.8311C10.8669 19.0495 10.4372 19.165 10.0003 19.1651C9.56334 19.1651 9.13381 19.0496 8.75533 18.8311C8.42408 18.6398 8.14196 18.3754 7.9302 18.0587L7.84347 17.9201L7.80456 17.8447C7.63205 17.4609 7.77525 17.001 8.14742 16.7861C8.51961 16.5712 8.98914 16.6775 9.23516 17.0187L9.28139 17.0901L9.3414 17.1808C9.40746 17.2669 9.49071 17.3394 9.58533 17.394C9.71141 17.4667 9.85475 17.5051 10.0003 17.5051C10.1459 17.505 10.2893 17.4668 10.4153 17.394C10.5414 17.3212 10.6457 17.2161 10.7184 17.0901L10.7647 17.0187Z" fill="#565D6D"/>
<path d="M17.5 6.65991C17.5 5.06137 16.9812 3.6464 16.1602 2.40454L15.9916 2.15895L15.9462 2.0868C15.7397 1.72041 15.84 1.24931 16.191 1.00148C16.5421 0.753642 17.0197 0.816951 17.2957 1.13441L17.3484 1.20088L17.5454 1.49024C18.5116 2.95237 19.16 4.67908 19.16 6.65991C19.16 7.11831 18.7884 7.48991 18.33 7.48991C17.8716 7.48991 17.5 7.11831 17.5 6.65991Z" fill="#565D6D"/>
<path d="M14.1498 6.67499C14.1498 5.57448 13.7129 4.51906 12.9348 3.74081C12.1565 2.96253 11.1005 2.52499 9.99983 2.52499C8.89925 2.52505 7.84386 2.96258 7.06563 3.74081C6.28743 4.51907 5.84982 5.57439 5.84982 6.67499L5.84657 7.03487C5.81104 8.79854 5.51251 10.0592 5.04737 11.0439C4.55729 12.0813 3.90694 12.751 3.36062 13.315L16.6398 13.315C16.0924 12.7507 15.4429 12.0806 14.9531 11.0439C14.4568 9.99333 14.1498 8.62889 14.1498 6.67499ZM15.8098 6.67499C15.8098 8.45509 16.0886 9.56248 16.4534 10.3346C16.7276 10.9151 17.0656 11.3415 17.4503 11.7587L17.85 12.1786L17.8678 12.1981C18.0843 12.436 18.2272 12.7316 18.2788 13.0491C18.3302 13.3665 18.2888 13.6921 18.1588 13.9861C18.0287 14.2802 17.8155 14.5304 17.546 14.7059C17.3101 14.8595 17.0393 14.9508 16.7598 14.9709L16.6398 14.975L3.35982 14.975C3.03809 14.9747 2.72307 14.8809 2.45362 14.7051C2.18417 14.5293 1.97145 14.2789 1.84166 13.9845C1.71191 13.6902 1.67056 13.3642 1.72251 13.0467C1.77448 12.7293 1.91756 12.434 2.13426 12.1964L2.15129 12.1778L2.55089 11.7587C2.93503 11.3417 3.27202 10.9151 3.54624 10.3346C3.8882 9.6107 4.1546 8.59221 4.18657 7.00083L4.18982 6.67499C4.18982 5.13408 4.80237 3.65592 5.89196 2.56632C6.98147 1.47698 8.4591 0.865048 9.99983 0.86499C11.5406 0.86499 13.0189 1.47681 14.1085 2.56632C15.198 3.65592 15.8098 5.13408 15.8098 6.67499Z" fill="#565D6D"/>
<path d="M0.84 6.66001C0.84 4.54711 1.57728 2.72289 2.65157 1.20097C2.91595 0.826557 3.43457 0.73725 3.80903 1.00157C4.18345 1.26595 4.27276 1.78458 4.00843 2.15904C3.09076 3.4591 2.5 4.95495 2.5 6.66001C2.5 7.1184 2.12839 7.49001 1.67 7.49001C1.21161 7.49001 0.84 7.1184 0.84 6.66001Z" fill="#565D6D"/>
</g>
<defs>
<clipPath id="clip0_16_5272">
<rect width="20" height="20" fill="white"/>
</clipPath>
</defs>
</svg>
