<svg width="20" height="20" viewBox="0 0 20 20" fill="none" xmlns="http://www.w3.org/2000/svg">
<path d="M15.81 3.36012C15.81 2.90172 15.4384 2.53012 14.98 2.53012L5.02 2.53012C4.56161 2.53012 4.19 2.90172 4.19 3.36012L4.19 16.6401C4.19 17.0985 4.56161 17.4701 5.02 17.4701L14.98 17.4701C15.4384 17.4701 15.81 17.0985 15.81 16.6401L15.81 3.36012ZM17.47 16.6401C17.47 18.0153 16.3552 19.1301 14.98 19.1301L5.02 19.1301C3.64482 19.1301 2.53 18.0153 2.53 16.6401L2.53 3.36012C2.53 1.98493 3.64482 0.870117 5.02 0.870117L14.98 0.870117C16.3552 0.870117 17.47 1.98493 17.47 3.36012L17.47 16.6401Z" fill="#565D6D"/>
<path d="M11.66 18.3302V15.8402L8.34 15.8402L8.34 18.3302C8.34 18.7886 7.96839 19.1602 7.51 19.1602C7.05161 19.1602 6.68 18.7886 6.68 18.3302L6.68 15.0102L6.68405 14.9251C6.72665 14.5066 7.08033 14.1802 7.51 14.1802L12.49 14.1802L12.5751 14.1842C12.9936 14.2268 13.32 14.5805 13.32 15.0102V18.3302C13.32 18.7886 12.9484 19.1602 12.49 19.1602C12.0316 19.1602 11.66 18.7886 11.66 18.3302Z" fill="#565D6D"/>
<path d="M6.67811 4.17017L6.76321 4.17422C7.18174 4.21674 7.50811 4.57043 7.50811 5.00017C7.50811 5.42991 7.18174 5.78359 6.76321 5.82612L6.67811 5.83017H6.67C6.21161 5.83017 5.84 5.45856 5.84 5.00017C5.84 4.54177 6.21161 4.17017 6.67 4.17017H6.67811Z" fill="#565D6D"/>
<path d="M13.3481 4.17017L13.4332 4.17422C13.8517 4.21674 14.1781 4.57043 14.1781 5.00017C14.1781 5.42991 13.8517 5.78359 13.4332 5.82612L13.3481 5.83017H13.34C12.8816 5.83017 12.51 5.45856 12.51 5.00017C12.51 4.54177 12.8816 4.17017 13.34 4.17017H13.3481Z" fill="#565D6D"/>
<path d="M10.0081 4.17017L10.0932 4.17422C10.5117 4.21674 10.8381 4.57043 10.8381 5.00017C10.8381 5.42991 10.5117 5.78359 10.0932 5.82612L10.0081 5.83017H10C9.54159 5.83017 9.17 5.45856 9.17 5.00017C9.17 4.54177 9.54159 4.17017 10 4.17017H10.0081Z" fill="#565D6D"/>
<path d="M10.0081 7.5L10.0932 7.50405C10.5117 7.54657 10.8381 7.90026 10.8381 8.33C10.8381 8.75977 10.5117 9.11344 10.0932 9.15593L10.0081 9.16H10C9.54159 9.16 9.17 8.78841 9.17 8.33C9.17 7.87161 9.54159 7.5 10 7.5H10.0081Z" fill="#565D6D"/>
<path d="M10.0081 10.8401L10.0932 10.8442C10.5117 10.8867 10.8381 11.2403 10.8381 11.6701C10.8381 12.0999 10.5117 12.4535 10.0932 12.496L10.0081 12.5001H10C9.54159 12.5001 9.17 12.1285 9.17 11.6701C9.17 11.2117 9.54159 10.8401 10 10.8401H10.0081Z" fill="#565D6D"/>
<path d="M13.3481 7.5L13.4332 7.50405C13.8517 7.54657 14.1781 7.90026 14.1781 8.33C14.1781 8.75977 13.8517 9.11344 13.4332 9.15593L13.3481 9.16H13.34C12.8816 9.16 12.51 8.78841 12.51 8.33C12.51 7.87161 12.8816 7.5 13.34 7.5H13.3481Z" fill="#565D6D"/>
<path d="M13.3481 10.8401L13.4332 10.8442C13.8517 10.8867 14.1781 11.2403 14.1781 11.6701C14.1781 12.0999 13.8517 12.4535 13.4332 12.496L13.3481 12.5001H13.34C12.8816 12.5001 12.51 12.1285 12.51 11.6701C12.51 11.2117 12.8816 10.8401 13.34 10.8401H13.3481Z" fill="#565D6D"/>
<path d="M6.67811 7.5L6.76321 7.50405C7.18174 7.54657 7.50811 7.90026 7.50811 8.33C7.50811 8.75977 7.18174 9.11344 6.76321 9.15593L6.67811 9.16H6.67C6.21161 9.16 5.84 8.78841 5.84 8.33C5.84 7.87161 6.21161 7.5 6.67 7.5H6.67811Z" fill="#565D6D"/>
<path d="M6.67811 10.8401L6.76321 10.8442C7.18174 10.8867 7.50811 11.2403 7.50811 11.6701C7.50811 12.0999 7.18174 12.4535 6.76321 12.496L6.67811 12.5001H6.67C6.21161 12.5001 5.84 12.1285 5.84 11.6701C5.84 11.2117 6.21161 10.8401 6.67 10.8401H6.67811Z" fill="#565D6D"/>
</svg>
