<svg width="20" height="20" viewBox="0 0 20 20" fill="none" xmlns="http://www.w3.org/2000/svg">
<path d="M2.53 16.6401L2.53 3.36012C2.53 2.69973 2.79253 2.06658 3.2595 1.59961C3.72646 1.13265 4.35961 0.870117 5.02 0.870117L12.49 0.870117L12.5718 0.874168C12.7619 0.893 12.9406 0.977046 13.0768 1.11328L17.2268 5.26328C17.3825 5.41894 17.47 5.62998 17.47 5.85012L17.47 16.6401C17.47 17.3005 17.2075 17.9337 16.7405 18.4006C16.2736 18.8676 15.6404 19.1301 14.98 19.1301L5.02 19.1301C4.35961 19.1301 3.72646 18.8676 3.2595 18.4006C2.79253 17.9337 2.53 17.3005 2.53 16.6401ZM4.19 16.6401C4.19 16.8602 4.27751 17.0713 4.43317 17.2269C4.58882 17.3826 4.79987 17.4701 5.02 17.4701L14.98 17.4701C15.2001 17.4701 15.4112 17.3826 15.5668 17.2269C15.7225 17.0713 15.81 16.8602 15.81 16.6401L15.81 6.19379L12.1463 2.53012L5.02 2.53012C4.79987 2.53012 4.58882 2.61762 4.43317 2.77328C4.27751 2.92894 4.19 3.13998 4.19 3.36012L4.19 16.6401Z" fill="#565D6D"/>
<path d="M10.85 5.0001L10.85 1.6801C10.85 1.22171 11.2216 0.850098 11.68 0.850098C12.1384 0.850098 12.51 1.22171 12.51 1.6801L12.51 5.0001C12.51 5.22023 12.5975 5.43127 12.7532 5.58693C12.9088 5.74259 13.1199 5.8301 13.34 5.8301L16.66 5.8301C17.1184 5.8301 17.49 6.2017 17.49 6.6601C17.49 7.11849 17.1184 7.4901 16.66 7.4901L13.34 7.4901C12.6797 7.4901 12.0464 7.22757 11.5795 6.7606C11.1125 6.29364 10.85 5.66049 10.85 5.0001Z" fill="#565D6D"/>
<path d="M8.33 6.67017C8.78841 6.67017 9.16 7.04177 9.16 7.50017C9.16 7.95856 8.78841 8.33017 8.33 8.33017H6.67C6.21161 8.33017 5.84 7.95856 5.84 7.50017C5.84 7.04177 6.21161 6.67017 6.67 6.67017L8.33 6.67017Z" fill="#565D6D"/>
<path d="M13.32 10C13.7784 10 14.15 10.3716 14.15 10.83C14.15 11.2884 13.7784 11.66 13.32 11.66L6.68 11.66C6.22161 11.66 5.85 11.2884 5.85 10.83C5.85 10.3716 6.22161 10 6.68 10L13.32 10Z" fill="#565D6D"/>
<path d="M13.32 13.3401C13.7784 13.3401 14.15 13.7117 14.15 14.1701C14.15 14.6285 13.7784 15.0001 13.32 15.0001L6.68 15.0001C6.22161 15.0001 5.85 14.6285 5.85 14.1701C5.85 13.7117 6.22161 13.3401 6.68 13.3401L13.32 13.3401Z" fill="#565D6D"/>
</svg>
