<svg width="20" height="20" viewBox="0 0 20 20" fill="none" xmlns="http://www.w3.org/2000/svg">
<g clip-path="url(#clip0_16_5303)">
<path d="M8.59089 13.5808C8.89475 13.2769 9.37532 13.2582 9.70135 13.524L9.76451 13.5808L11.4245 15.2408L11.4927 15.3024C11.5632 15.3602 11.6423 15.4076 11.7269 15.4426C11.8397 15.4893 11.9606 15.5131 12.0827 15.5131C12.2048 15.5131 12.3257 15.4893 12.4385 15.4426C12.5515 15.3959 12.6545 15.3272 12.7409 15.2408C12.8273 15.1543 12.8959 15.0513 12.9427 14.9384C12.9777 14.8539 13.0002 14.7649 13.0091 14.6742L13.0132 14.5826C13.0132 14.4605 12.9894 14.3396 12.9427 14.2268C12.9076 14.1422 12.8603 14.063 12.8025 13.9926L12.7409 13.9244L12.6841 13.8613C12.4183 13.5352 12.437 13.0547 12.7409 12.7508C13.0448 12.4469 13.5253 12.4282 13.8513 12.694L13.9145 12.7508L14.0021 12.8432C14.2016 13.0633 14.3623 13.3163 14.4763 13.5913C14.6064 13.9056 14.6732 14.2424 14.6732 14.5826L14.67 14.7099C14.6554 15.0066 14.5901 15.2989 14.4763 15.5739C14.346 15.8882 14.1551 16.1739 13.9145 16.4144C13.674 16.655 13.3883 16.8459 13.074 16.9762C12.7597 17.1063 12.4229 17.1731 12.0827 17.1731C11.7426 17.1731 11.4057 17.1063 11.0914 16.9762C10.8164 16.8622 10.5634 16.7015 10.3433 16.502L10.2509 16.4144L8.59089 14.7544L8.53412 14.6913C8.26824 14.3652 8.28699 13.8847 8.59089 13.5808Z" fill="#565D6D"/>
<path d="M11.0827 11.0631C11.4068 10.7391 11.9323 10.7392 12.2564 11.0631L14.3314 13.1381L14.4003 13.2005C14.5658 13.3359 14.7738 13.4111 14.9896 13.4112L15.082 13.4063C15.295 13.3852 15.4951 13.2907 15.6477 13.1381C15.8005 12.9853 15.8949 12.7853 15.9161 12.5723L15.9201 12.4807C15.9201 12.2647 15.8451 12.0562 15.7093 11.8906L15.6477 11.8225L12.4274 8.60137C12.1163 8.29064 11.6945 8.1167 11.2546 8.1167C10.8147 8.11675 10.3929 8.2914 10.0818 8.6022L10.0809 8.60137L9.35144 9.33252C8.86565 9.81815 8.20656 10.0912 7.5196 10.0912C6.83262 10.0911 6.17356 9.81823 5.68776 9.33252C5.23228 8.87701 4.9641 8.26907 4.93233 7.62874L4.92909 7.50068C4.92909 6.81358 5.20191 6.15388 5.68776 5.66803L8.02133 3.33528L8.19073 3.17317C9.05406 2.38096 10.1445 1.87583 11.3113 1.73202C12.5555 1.57871 13.8154 1.84452 14.8915 2.48745L15.2814 2.72007L15.2863 2.72251L15.3535 2.75979C15.492 2.82666 15.6464 2.85327 15.7993 2.8376L15.8755 2.82626L17.3159 2.53689L17.4002 2.52392C17.8189 2.48308 18.2086 2.76565 18.2934 3.18695C18.3836 3.63624 18.0926 4.07328 17.6433 4.16366L16.1989 4.45465L16.1957 4.45545C15.5897 4.57473 14.9612 4.46401 14.432 4.14583L14.0421 3.91401L14.0413 3.9132C13.282 3.45925 12.3927 3.27172 11.5148 3.37986C10.6368 3.48806 9.81973 3.88589 9.19341 4.51058L6.86144 6.84252C6.68708 7.01703 6.58909 7.25398 6.58909 7.50068L6.59395 7.59227C6.6151 7.80518 6.7089 8.00536 6.86144 8.15803C7.03593 8.33253 7.27283 8.43114 7.5196 8.43122C7.76643 8.43122 8.00323 8.33253 8.17776 8.15803L8.90806 7.42773L9.02799 7.31426C9.6368 6.76368 10.4299 6.45674 11.2546 6.4567C12.0795 6.4567 12.8731 6.7635 13.4819 7.31426L13.6011 7.42773L16.8214 10.6481L16.9106 10.7413C17.3409 11.2165 17.5801 11.8365 17.5801 12.4807L17.5777 12.6088C17.546 13.2491 17.2769 13.857 16.8214 14.3125C16.366 14.7678 15.7585 15.0361 15.1185 15.068L14.9896 15.0712C14.3456 15.0711 13.7261 14.8311 13.2509 14.4008L13.1577 14.3125L11.0827 12.2375C10.7586 11.9134 10.7586 11.3872 11.0827 11.0631Z" fill="#565D6D"/>
<path d="M17.4246 1.68827C17.8528 1.64936 18.2345 1.943 18.3146 2.35617L18.3268 2.43965L19.1568 11.5697C19.1778 11.8019 19.1 12.0329 18.9428 12.2051C18.7855 12.3772 18.5631 12.475 18.33 12.475H16.67C16.2116 12.475 15.84 12.1034 15.84 11.645C15.84 11.1866 16.2116 10.815 16.67 10.815H17.4206L16.6732 2.59041L16.67 2.5053C16.6744 2.0847 16.9968 1.72728 17.4246 1.68827Z" fill="#565D6D"/>
<path d="M2.58559 1.70341C3.042 1.74502 3.37846 2.14911 3.33697 2.60555L2.54182 11.3481L7.66205 16.4684C7.83658 16.6429 8.07337 16.7407 8.3202 16.7407C8.56704 16.7407 8.80384 16.6429 8.97839 16.4684C9.15294 16.2938 9.25071 16.057 9.25071 15.8102C9.25071 15.5941 9.17576 15.3857 9.03998 15.2201L8.97839 15.152L8.92162 15.0888C8.65577 14.7628 8.67453 14.2822 8.97839 13.9784C9.28225 13.6745 9.76282 13.6557 10.0888 13.9216L10.152 13.9784L10.2404 14.0716C10.6708 14.5468 10.9107 15.166 10.9107 15.8102C10.9107 16.4972 10.6379 17.1562 10.152 17.642C9.66621 18.1279 9.00727 18.4007 8.3202 18.4007C7.63312 18.4007 6.97422 18.1279 6.48837 17.642L1.09337 12.247C0.919198 12.0728 0.831153 11.8301 0.853454 11.5848L1.68345 2.45479C1.72506 1.99838 2.12916 1.66192 2.58559 1.70341Z" fill="#565D6D"/>
<path d="M9.15 2.5C9.60841 2.5 9.98 2.87161 9.98 3.33C9.98 3.78839 9.60841 4.16 9.15 4.16L2.51 4.16C2.05161 4.16 1.68 3.78839 1.68 3.33C1.68 2.87161 2.05161 2.5 2.51 2.5L9.15 2.5Z" fill="#565D6D"/>
</g>
<defs>
<clipPath id="clip0_16_5303">
<rect width="20" height="20" fill="white"/>
</clipPath>
</defs>
</svg>
