<svg width="20" height="20" viewBox="0 0 20 20" fill="none" xmlns="http://www.w3.org/2000/svg">
<path d="M10 0.871826C10.4357 0.871826 10.8633 0.986947 11.2409 1.20415L11.2418 1.20334L17.0518 4.52334L17.055 4.52577L17.1936 4.61168C17.5101 4.82322 17.7749 5.10519 17.9661 5.43601C18.1845 5.81397 18.2996 6.24287 18.3 6.67939L18.3 13.321C18.2996 13.7576 18.1845 14.1865 17.9661 14.5644C17.7476 14.9424 17.4331 15.2563 17.055 15.4746L17.0518 15.4771L11.2418 18.7971L11.2409 18.7963C10.8633 19.0134 10.4357 19.1286 10 19.1286C9.56409 19.1286 9.13605 19.0137 8.75824 18.7963V18.7971L2.94825 15.4771L2.945 15.4746C2.56689 15.2563 2.25245 14.9424 2.03394 14.5644C1.84277 14.2336 1.73098 13.8637 1.70568 13.4839L1.7 13.321L1.7 6.67939L1.70568 6.51566C1.73106 6.13613 1.84292 5.76662 2.03394 5.43601C2.25244 5.05802 2.56692 4.74409 2.945 4.52577L2.94825 4.52334L8.75824 1.20334C9.13605 0.98591 9.56409 0.871826 10 0.871826ZM10 2.53183C9.85434 2.53183 9.71116 2.57005 9.585 2.64286L9.58176 2.64449L3.77419 5.96206L3.775 5.96286C3.64895 6.03565 3.54389 6.14081 3.47105 6.26683C3.39837 6.39273 3.36015 6.53563 3.36 6.68101L3.36 13.3194L3.3673 13.428C3.38159 13.5353 3.41657 13.6392 3.47105 13.7336C3.54324 13.8584 3.6472 13.9624 3.77176 14.0351L9.58176 17.3551L9.585 17.3576L9.68228 17.4054C9.78262 17.4469 9.89061 17.4686 10 17.4686C10.1457 17.4686 10.2888 17.4303 10.415 17.3576L10.4182 17.3551L16.2282 14.0351C16.3528 13.9624 16.4567 13.8584 16.5289 13.7336C16.6015 13.6079 16.6397 13.4654 16.64 13.3202L16.64 6.68101L16.6327 6.5724C16.6184 6.46509 16.5834 6.36118 16.5289 6.26683C16.4562 6.14081 16.3511 6.03565 16.225 5.96286L10.4182 2.64449L10.415 2.64286C10.2888 2.57005 10.1457 2.53183 10 2.53183Z" fill="#565D6D"/>
<path d="M9.17 18.3202L9.17 10.0202C9.17 9.56178 9.54159 9.19019 10 9.19019C10.4584 9.19019 10.83 9.56178 10.83 10.0202L10.83 18.3202C10.83 18.7786 10.4584 19.1502 10 19.1502C9.54159 19.1502 9.17 18.7786 9.17 18.3202Z" fill="#565D6D"/>
<path d="M16.8159 5.12539C17.2134 4.89721 17.7207 5.03436 17.949 5.43177C18.1772 5.82929 18.04 6.33668 17.6426 6.56492L10.4133 10.7149C10.1895 10.8434 9.92057 10.8598 9.68543 10.7635L9.58658 10.7149L2.35731 6.56492L2.28598 6.51872C1.94429 6.27346 1.83701 5.80442 2.05092 5.43177C2.26485 5.0593 2.72386 4.91526 3.10788 5.08648L3.18407 5.12539L9.99992 9.03787L16.8159 5.12539Z" fill="#565D6D"/>
<path d="M5.54439 3.146C5.75787 2.77313 6.21703 2.62894 6.60134 2.7999L6.67753 2.838L14.1475 7.11282L14.2189 7.1582C14.561 7.40291 14.6688 7.87216 14.4555 8.24515C14.2421 8.61812 13.783 8.76295 13.3986 8.59205L13.3224 8.55313L5.85239 4.27914L5.78107 4.23294C5.43904 3.98815 5.33099 3.51894 5.54439 3.146Z" fill="#565D6D"/>
</svg>
