<svg width="20" height="20" viewBox="0 0 20 20" fill="none" xmlns="http://www.w3.org/2000/svg">
<g clip-path="url(#clip0_16_5360)">
<path d="M10 3.33009C10 2.8717 9.62841 2.50009 9.17 2.50009C8.71159 2.50009 8.34 2.8717 8.34 3.33009C8.34 3.78848 8.71159 4.16009 9.17 4.16009C9.62841 4.16009 10 3.78848 10 3.33009ZM11.66 3.33009C11.66 4.70527 10.5452 5.82009 9.17 5.82009C7.79481 5.82009 6.68 4.70527 6.68 3.33009C6.68 1.9549 7.79481 0.840088 9.17 0.840088C10.5452 0.840088 11.66 1.9549 11.66 3.33009Z" fill="#565D6D"/>
<path d="M15.83 6.67018C15.83 6.21178 15.4584 5.84018 15 5.84018C14.5416 5.84018 14.17 6.21178 14.17 6.67018C14.17 7.12857 14.5416 7.50018 15 7.50018C15.4584 7.50018 15.83 7.12857 15.83 6.67018ZM17.49 6.67018C17.49 8.04536 16.3752 9.16018 15 9.16018C13.6248 9.16018 12.51 8.04536 12.51 6.67018C12.51 5.29499 13.6248 4.18018 15 4.18018C16.3752 4.18018 17.49 5.29499 17.49 6.67018Z" fill="#565D6D"/>
<path d="M17.5 13.3301C17.5 12.8717 17.1284 12.5001 16.67 12.5001C16.2116 12.5001 15.84 12.8717 15.84 13.3301C15.84 13.7885 16.2116 14.1601 16.67 14.1601C17.1284 14.1601 17.5 13.7885 17.5 13.3301ZM19.16 13.3301C19.16 14.7053 18.0452 15.8201 16.67 15.8201C15.2948 15.8201 14.18 14.7053 14.18 13.3301C14.18 11.9549 15.2948 10.8401 16.67 10.8401C18.0452 10.8401 19.16 11.9549 19.16 13.3301Z" fill="#565D6D"/>
<path d="M10.8162 12.3371C10.7975 11.9569 10.7133 11.5824 10.5673 11.2299C10.4005 10.8272 10.1558 10.461 9.84757 10.1527C9.53923 9.84435 9.17311 9.59975 8.77031 9.43292C8.4179 9.28692 8.04335 9.20276 7.66312 9.18409L7.50021 9.18002L4.59683 9.18002L4.41121 9.1889C3.98253 9.22808 3.575 9.39972 3.24645 9.68258C2.87087 10.006 2.6231 10.453 2.54857 10.9429C2.47407 11.433 2.57785 11.9337 2.84037 12.3541C3.10246 12.7738 3.50566 13.086 3.97756 13.2344C5.37837 13.6697 6.32986 14.6225 6.76503 16.0243L6.82826 16.1986C6.99319 16.5965 7.27885 16.935 7.64691 17.1647C8.06751 17.4271 8.56804 17.5297 9.05808 17.4549C9.54827 17.38 9.99614 17.1323 10.3193 16.7562C10.602 16.4272 10.7727 16.0188 10.8113 15.5899L10.8202 15.405V12.5L10.8162 12.3371ZM12.4802 15.405L12.4762 15.572C12.4387 16.4049 12.1234 17.2035 11.578 17.8382C10.9965 18.5152 10.1915 18.9614 9.30932 19.0963C8.42703 19.2311 7.52556 19.0451 6.76828 18.5726C6.01097 18.1001 5.44722 17.3721 5.18042 16.5204L5.17961 16.5179C4.90619 15.6359 4.36349 15.0925 3.48556 14.8198L3.48394 14.819C2.63258 14.5524 1.90417 13.9903 1.43164 13.2336C0.959102 12.4768 0.773105 11.5753 0.907218 10.6933C1.04135 9.81148 1.48683 9.00663 2.16275 8.42455C2.83886 7.84248 3.70141 7.52158 4.59358 7.52002L7.50021 7.52002L7.74499 7.5257C8.31528 7.55378 8.87714 7.68038 9.40576 7.89935C10.0099 8.14962 10.5588 8.5166 11.0212 8.97899C11.4836 9.44139 11.8506 9.99027 12.1009 10.5944C12.3511 11.1986 12.4802 11.8461 12.4802 12.5V15.405Z" fill="#565D6D"/>
</g>
<defs>
<clipPath id="clip0_16_5360">
<rect width="20" height="20" fill="white"/>
</clipPath>
</defs>
</svg>
