<svg width="20" height="20" viewBox="0 0 20 20" fill="none" xmlns="http://www.w3.org/2000/svg">
<path d="M11.0124 3.36012C11.0124 3.13998 10.9249 2.92894 10.7692 2.77328C10.6135 2.6177 10.4024 2.53012 10.1824 2.53012H9.81757C9.59753 2.53012 9.38638 2.6177 9.23076 2.77328C9.07513 2.92894 8.98757 3.13998 8.98757 3.36012V3.51006C8.98715 3.94672 8.87137 4.37622 8.65283 4.75426C8.43437 5.13212 8.12061 5.44625 7.7426 5.6645L7.74179 5.66369L7.38758 5.87038L7.38515 5.872C7.00671 6.09041 6.5771 6.20513 6.14015 6.20513C5.70317 6.20508 5.27358 6.09049 4.89515 5.872L4.79545 5.8185L4.77114 5.80554C4.58069 5.6957 4.35455 5.66606 4.14215 5.72286C3.95618 5.7726 3.79399 5.88484 3.68257 6.03979L3.63799 6.10868L3.45562 6.42399C3.34647 6.61407 3.3172 6.83954 3.37375 7.05135C3.42346 7.23726 3.53582 7.39951 3.69068 7.51093L3.75958 7.55551L3.80416 7.58307L3.92817 7.66574C4.28438 7.88153 4.58098 8.18223 4.79059 8.54272C5.009 8.91846 5.12515 9.34508 5.12778 9.77967V10.2044L5.12291 10.3681C5.09927 10.7499 4.98841 11.1221 4.79708 11.455C4.58071 11.8315 4.26884 12.1438 3.89412 12.3629L3.89494 12.3637L3.77011 12.4382L3.75958 12.4447C3.56931 12.5549 3.43055 12.7365 3.37375 12.9489C3.3172 13.1607 3.34647 13.3862 3.45562 13.5763L3.63718 13.8916C3.74738 14.0818 3.92975 14.2206 4.14215 14.2774C4.35455 14.3341 4.58069 14.3045 4.77114 14.1947L4.79545 14.1817L4.89515 14.1282L5.03943 14.0513C5.38112 13.8828 5.75775 13.7951 6.14015 13.7951C6.52247 13.7951 6.89923 13.8829 7.24087 14.0513L7.38515 14.1282L7.38758 14.1299L7.74179 14.3357C8.11979 14.554 8.43437 14.8681 8.65283 15.246C8.87137 15.624 8.98715 16.0535 8.98757 16.4901V16.6401C8.98757 16.8602 9.07513 17.0713 9.23076 17.2269C9.38638 17.3826 9.59753 17.4701 9.81757 17.4701H10.1824C10.4024 17.4701 10.6135 17.3826 10.7692 17.2269C10.9249 17.0713 11.0124 16.8602 11.0124 16.6401V16.4901L11.018 16.3265C11.0434 15.9467 11.1559 15.5767 11.3471 15.246C11.5382 14.9154 11.8025 14.6339 12.1187 14.4224L12.2574 14.3357L12.6123 14.1299L12.6148 14.1282L12.7591 14.0513C13.1007 13.8829 13.4775 13.7951 13.8598 13.7951C14.2967 13.7951 14.7264 13.9097 15.1048 14.1282L15.2288 14.1947C15.4192 14.3045 15.6454 14.3341 15.8578 14.2774C16.0702 14.2206 16.2517 14.0818 16.362 13.8916L16.5395 13.5763L16.5436 13.5698L16.5808 13.496C16.6593 13.3223 16.6759 13.1257 16.6262 12.94C16.5694 12.7277 16.4305 12.5468 16.2404 12.4366L16.1415 12.384C16.1334 12.3796 16.1252 12.3756 16.1172 12.3709C15.7372 12.1516 15.4215 11.8355 15.2029 11.455C14.9842 11.0746 14.8704 10.6431 14.8722 10.2044V9.79262C14.871 9.35504 14.9848 8.9246 15.2029 8.54521C15.4192 8.1688 15.7304 7.85564 16.105 7.63656L16.2298 7.56199L16.2404 7.55551L16.3092 7.51093C16.4641 7.39951 16.5765 7.23726 16.6262 7.05135C16.6827 6.83954 16.6534 6.61407 16.5443 6.42399L16.362 6.10787C16.2517 5.91761 16.0702 5.77967 15.8578 5.72286C15.6719 5.67316 15.4756 5.68971 15.3018 5.76825L15.2288 5.80554C15.2209 5.81012 15.2126 5.81419 15.2045 5.8185L15.104 5.87119L15.1048 5.872C14.7264 6.09049 14.2967 6.20508 13.8598 6.20513C13.4228 6.20513 12.9932 6.09041 12.6148 5.872L12.6123 5.87038L12.2574 5.66369C11.8794 5.44544 11.5656 5.13212 11.3471 4.75426C11.1286 4.37622 11.0128 3.94672 11.0124 3.51006V3.36012ZM12.6724 3.50845L12.6797 3.61706C12.6939 3.7246 12.7295 3.82892 12.7842 3.92345C12.8388 4.01794 12.9113 4.1006 12.9974 4.16661L13.0898 4.22821L13.444 4.4341C13.5701 4.50685 13.7142 4.54513 13.8598 4.54513C14.0054 4.54508 14.1488 4.50689 14.2748 4.4341L14.2992 4.42031L14.4232 4.35385C14.9895 4.0353 15.6581 3.95078 16.2866 4.11879C16.8441 4.26788 17.3302 4.60521 17.6645 5.06956L17.7983 5.27625L17.9806 5.59236L17.9814 5.59317L18.0941 5.81202C18.3296 6.33329 18.3793 6.92269 18.2303 7.48013C18.061 8.11339 17.6479 8.65328 17.0826 8.98453L17.0833 8.98528L16.9472 9.0672C16.8205 9.14032 16.7153 9.24598 16.6424 9.37272C16.5696 9.49946 16.5316 9.64322 16.5322 9.78938V10.2109C16.5316 10.357 16.5696 10.5008 16.6424 10.6275C16.7141 10.7523 16.8175 10.856 16.9415 10.929L17.0469 10.9857L17.0728 11.0003L17.2795 11.1341C17.7437 11.4683 18.0812 11.9539 18.2303 12.5112C18.3999 13.1457 18.3108 13.821 17.9847 14.3908L17.9855 14.3916L17.8031 14.7158L17.7983 14.724C17.4676 15.2948 16.9238 15.711 16.2866 15.8814C15.658 16.0495 14.9895 15.9635 14.4232 15.6448V15.6464L14.2992 15.58C14.291 15.5756 14.2828 15.5707 14.2748 15.5662C14.1488 15.4934 14.0054 15.4551 13.8598 15.4551C13.7142 15.4551 13.5709 15.4934 13.4448 15.5662L13.444 15.5653L13.0898 15.772L12.9974 15.8336C12.9113 15.8997 12.8388 15.9823 12.7842 16.0768C12.7114 16.2028 12.6725 16.3462 12.6724 16.4918V16.6401C12.6724 17.3004 12.4105 17.9337 11.9437 18.4006C11.4767 18.8676 10.8427 19.1301 10.1824 19.1301H9.81757C9.15722 19.1301 8.52326 18.8676 8.05628 18.4006C7.5895 17.9337 7.3276 17.3004 7.3276 16.6401V16.4918L7.3203 16.3831C7.30603 16.2757 7.27039 16.1713 7.21575 16.0768C7.16108 15.9823 7.08865 15.8997 7.00257 15.8336L6.91017 15.772L6.55515 15.5653C6.42903 15.4926 6.28576 15.4551 6.14015 15.4551C6.03101 15.4551 5.92343 15.4769 5.82322 15.5183L5.72515 15.5662C5.71718 15.5707 5.70896 15.5756 5.70083 15.58L5.57682 15.6464L5.57601 15.6448C5.00969 15.9632 4.34172 16.0494 3.71337 15.8814C3.15583 15.7323 2.66968 15.395 2.33544 14.9306L2.2017 14.724L2.01933 14.4078L2.01852 14.4071C1.68902 13.8358 1.59944 13.1572 1.76968 12.5201C1.93899 11.887 2.35143 11.3461 2.91661 11.015L3.05278 10.933L3.14356 10.8723C3.22999 10.8059 3.30287 10.7226 3.35754 10.6275C3.43033 10.5008 3.46836 10.357 3.46778 10.2109V9.78938L3.46048 9.68156C3.44581 9.57458 3.40974 9.47074 3.35511 9.37679C3.30049 9.283 3.2284 9.20083 3.14275 9.13526L3.05278 9.07525L3.00739 9.04694L2.88337 8.96428C2.33576 8.63145 1.93556 8.10047 1.76968 7.48013C1.59944 6.84304 1.68903 6.16441 2.01852 5.59317L2.01933 5.59156L2.2017 5.27625L2.33544 5.06956C2.66968 4.60521 3.15583 4.26788 3.71337 4.11879C4.3416 3.95084 5.00977 4.03639 5.57601 4.35466L5.57682 4.35385L5.70083 4.42031L5.72515 4.4341L5.82322 4.48191C5.92343 4.52339 6.031 4.54509 6.14015 4.54513C6.24946 4.54513 6.35754 4.52346 6.45788 4.48191L6.55515 4.4341L6.91017 4.22821L7.00257 4.16661C7.08865 4.1006 7.16108 4.01794 7.21575 3.92345C7.28849 3.7976 7.32735 3.6546 7.3276 3.50926V3.36012C7.3276 2.69987 7.5895 2.06655 8.05628 1.59961C8.52326 1.13265 9.15722 0.870117 9.81757 0.870117L10.1824 0.870117C10.8427 0.870117 11.4767 1.13265 11.9437 1.59961C12.4105 2.06655 12.6724 2.69987 12.6724 3.36012V3.50845Z" fill="#565D6D"/>
<path d="M11.66 10.0002C11.66 9.08336 10.9168 8.34018 10 8.34018C9.08318 8.34018 8.34 9.08336 8.34 10.0002C8.34 10.917 9.08318 11.6602 10 11.6602C10.9168 11.6602 11.66 10.917 11.66 10.0002ZM13.32 10.0002C13.32 11.8337 11.8336 13.3202 10 13.3202C8.16641 13.3202 6.68 11.8337 6.68 10.0002C6.68 8.16659 8.16641 6.68018 10 6.68018C11.8336 6.68018 13.32 8.16659 13.32 10.0002Z" fill="#565D6D"/>
</svg>
