<svg width="20" height="20" viewBox="0 0 20 20" fill="none" xmlns="http://www.w3.org/2000/svg">
<path d="M9.16 10.0002C9.16 9.08336 8.41682 8.34018 7.5 8.34018C6.58321 8.34018 5.84 9.08336 5.84 10.0002C5.84 10.917 6.58321 11.6602 7.5 11.6602C8.41682 11.6602 9.16 10.917 9.16 10.0002ZM10.82 10.0002C10.82 11.8337 9.33355 13.3202 7.5 13.3202C5.66641 13.3202 4.18 11.8337 4.18 10.0002C4.18 8.16659 5.66641 6.68018 7.5 6.68018C9.33355 6.68018 10.82 8.16659 10.82 10.0002Z" fill="#565D6D"/>
<path d="M17.47 10.0001C17.47 7.24973 15.2404 5.02011 12.49 5.02011L7.51 5.02011C4.75962 5.02011 2.53 7.24973 2.53 10.0001C2.53 12.7505 4.75962 14.9801 7.51 14.9801L12.49 14.9801C15.2404 14.9801 17.47 12.7505 17.47 10.0001ZM19.13 10.0001C19.13 13.6673 16.1572 16.6401 12.49 16.6401L7.51 16.6401C3.84283 16.6401 0.869999 13.6673 0.869999 10.0001C0.869999 6.33293 3.84283 3.36011 7.51 3.36011L12.49 3.36011C16.1572 3.36011 19.13 6.33293 19.13 10.0001Z" fill="#565D6D"/>
</svg>
