<svg width="20" height="20" viewBox="0 0 20 20" fill="none" xmlns="http://www.w3.org/2000/svg">
<path d="M12.48 17.4899V15.8299C12.48 15.1696 12.2175 14.5364 11.7505 14.0694C11.342 13.6609 10.8063 13.4087 10.2364 13.3521L9.99 13.3399H5.01C4.34961 13.3399 3.71646 13.6025 3.2495 14.0694C2.78253 14.5364 2.52 15.1696 2.52 15.8299L2.52 17.4899C2.52 17.9483 2.14839 18.3199 1.69 18.3199C1.23161 18.3199 0.860001 17.9483 0.860001 17.4899L0.860001 15.8299C0.860001 14.7293 1.29754 13.674 2.07582 12.8957C2.8541 12.1175 3.90935 11.6799 5.01 11.6799H9.99L10.1958 11.6848C11.2216 11.7357 12.1946 12.1661 12.9242 12.8957C13.7024 13.674 14.14 14.7293 14.14 15.8299V17.4899C14.14 17.9483 13.7684 18.3199 13.31 18.3199C12.8516 18.3199 12.48 17.9483 12.48 17.4899Z" fill="#565D6D"/>
<path d="M14.9918 5.83006C14.9918 5.27853 14.8088 4.74245 14.4714 4.30624C14.176 3.92444 13.7766 3.63784 13.3236 3.47948L13.1267 3.4195L13.0457 3.39437C12.6512 3.2482 12.4239 2.82394 12.5317 2.40794C12.6396 1.99204 13.0441 1.73219 13.4598 1.79597L13.5433 1.81299L13.7087 1.85919C14.5307 2.10901 15.2561 2.6089 15.7837 3.29062C16.3462 4.01768 16.6518 4.91075 16.6518 5.83006C16.6518 6.74938 16.3462 7.64244 15.7837 8.36954C15.221 9.09654 14.4333 9.61645 13.5433 9.84711C13.0996 9.96215 12.6468 9.6958 12.5317 9.25217C12.4167 8.80853 12.683 8.35568 13.1267 8.24063C13.6606 8.1022 14.1338 7.79014 14.4714 7.35389C14.8089 6.91768 14.9918 6.3816 14.9918 5.83006Z" fill="#565D6D"/>
<path d="M17.495 17.4903V15.8311L17.4861 15.6252C17.4461 15.147 17.2688 14.6888 16.973 14.3073C16.6772 13.9257 16.2777 13.6393 15.8245 13.4814L15.6275 13.4213L15.5464 13.3962C15.1518 13.2504 14.9243 12.8267 15.0317 12.4106C15.1392 11.9947 15.5433 11.7337 15.959 11.797L16.0425 11.8148L16.2078 11.861C17.0303 12.1101 17.7571 12.6086 18.2852 13.29C18.8486 14.0167 19.1543 14.91 19.155 15.8295V17.4903C19.1549 17.9487 18.7833 18.3203 18.325 18.3203C17.8667 18.3203 17.4951 17.9487 17.495 17.4903Z" fill="#565D6D"/>
<path d="M9.99 5.82993C9.99 4.45475 8.87523 3.33993 7.5 3.33993C6.12481 3.33993 5.01 4.45475 5.01 5.82993C5.01 7.20512 6.12481 8.31993 7.5 8.31993C8.87523 8.31993 9.99 7.20512 9.99 5.82993ZM11.65 5.82993C11.65 8.12191 9.79196 9.97993 7.5 9.97993C5.20802 9.97993 3.35 8.12191 3.35 5.82993C3.35 3.53795 5.20802 1.67993 7.5 1.67993C9.79196 1.67993 11.65 3.53795 11.65 5.82993Z" fill="#565D6D"/>
</svg>
